#!OML:ASF H:\Swim 2\Project 1\Capture day 1\Session 1\male.ASF
:FULLY-SPECIFIED
:DEGREES
1399
root 7.47827 9.42095 10.8271 99.0144 -0.680827 4.69242
lowerback -8.09728 0.631369 -1.72406
upperback -0.919696 1.02683 -0.555711
thorax 3.56757 0.494212 0.507646
lowerneck -17.2007 -13.9323 -1.04604
upperneck 50.679 -13.0401 -15.1263
head 23.569 -5.92982 -11.2224
rclavicle -6.36111e-015 1.52567e-014
rhumerus 80.1196 -23.1164 -31.5727
rradius 21.6396
rwrist 22.4928
rhand -25.1082 5.08107
rfingers 7.12502
rthumb 1.40706 -24.894
lclavicle -6.36111e-015 1.52567e-014
lhumerus 75.8286 16.3075 33.8501
lradius 19.6431
lwrist -15.9545
lhand -40.2849 -20.5029
lfingers 7.12502
lthumb -13.2425 9.05646
rfemur -40.678 17.5348 -4.05071
rtibia 27.0815
rfoot 16.7762 -6.79383
rtoes -44.3339
lfemur -45.5691 -18.2468 -0.8422
ltibia 35.5218
lfoot 0.616131 30.8682
ltoes 43.3021
1400
root 7.4723 9.4086 10.8067 98.938 -0.607443 4.76895
lowerback -8.08744 0.633391 -1.79133
upperback -0.912287 1.03453 -0.531216
thorax 3.56795 0.496925 0.57151
lowerneck -17.1104 -13.8869 -1.10912
upperneck 50.6926 -13.0662 -14.8662
head 23.5955 -5.92051 -11.0661
rclavicle -4.77083e-015 -8.99501e-015
rhumerus 78.897 -22.7597 -30.7365
rradius 22.4421
rwrist 20.2906
rhand -25.4917 5.01722
rfingers 7.12502
rthumb 1.03664 -24.96
lclavicle -4.77083e-015 -8.99501e-015
lhumerus 74.2315 15.4156 31.1129
lradius 21.3322
lwrist -11.2476
lhand -40.1866 -20.7274
lfingers 7.12502
lthumb -13.1476 8.83807
rfemur -41.4156 17.9621 -3.63785
rtibia 27.6439
rfoot 16.552 -5.76525
rtoes -44.6331
lfemur -46.0294 -18.276 -1.41575
ltibia 35.996
lfoot 2.92677 29.9699
ltoes 40.7853
1401
root 7.46616 9.39593 10.787 98.8111 -0.539167 4.83163
lowerback -8.02141 0.644044 -1.88148
upperback -0.888661 1.05449 -0.503929
thorax 3.55298 0.505442 0.651745
lowerneck -17.0312 -13.8923 -1.08582
upperneck 50.7285 -13.1242 -14.7787
head 23.5922 -5.92656 -11.0251
rclavicle -3.18055e-015 4.12478e-015
rhumerus 77.604 -22.3923 -29.8897
rradius 23.3865
rwrist 18.085
rhand -25.7219 4.88662
rfingers 7.12502
rthumb 0.814368 -25.0916
lclavicle -3.18055e-015 4.12478e-015
lhumerus 73.2096 14.5856 29.5597
lradius 22.6506
lwrist -7.49137
lhand -40.0468 -21.3321
lfingers 7.12502
lthumb -13.0129 8.24202
rfemur -42.0921 18.3968 -3.2325
rtibia 28.1915
rfoot 16.3691 -4.68981
rtoes -44.8774
lfemur -46.4177 -18.2982 -2.01415
ltibia 36.4539
lfoot 5.26195 28.8373
ltoes 37.929
1402
root 7.45986 9.38305 10.7681 98.649 -0.476381 4.8893
lowerback -7.91559 0.660833 -1.9857
upperback -0.851261 1.08294 -0.477019
thorax 3.52949 0.517966 0.739872
lowerneck -16.9691 -13.9368 -0.984346
upperneck 50.7787 -13.2045 -14.8391
head 23.5616 -5.94367 -11.0824
rclavicle -7.95139e-015 9.98893e-015
rhumerus 76.2358 -22.0202 -29.0217
rradius 24.4715
rwrist 15.8152
rhand -25.8383 4.74039
rfingers 7.12502
rthumb 0.701894 -25.2382
lclavicle -7.95139e-015 9.98893e-015
lhumerus 72.2144 13.7496 28.1336
lradius 24.0761
lwrist -3.91627
lhand -39.89 -21.8723
lfingers 7.12502
lthumb -12.8618 7.71141
rfemur -42.7245 18.8285 -2.84014
rtibia 28.7391
rfoot 16.2356 -3.56027
rtoes -45.0387
lfemur -46.7498 -18.27 -2.65877
ltibia 36.8946
lfoot 7.56333 27.4352
ltoes 34.8115
1403
root 7.45361 9.37004 10.7494 98.4743 -0.422458 4.95908
lowerback -7.79281 0.678303 -2.0967
upperback -0.807618 1.11229 -0.450254
thorax 3.50269 0.530809 0.831439
lowerneck -16.9173 -13.9872 -0.870379
upperneck 50.8155 -13.2896 -14.919
head 23.5139 -5.96512 -11.1488
rclavicle 4.77083e-015 6.4605e-016
rhumerus 74.7943 -21.6378 -28.1224
rradius 25.681
rwrist 13.4571
rhand -25.9061 4.61697
rfingers 7.12502
rthumb 0.636436 -25.3618
lclavicle 4.77083e-015 6.4605e-016
lhumerus 71.2453 12.9159 26.8643
lradius 25.5691
lwrist -0.720998
lhand -39.7909 -22.2758
lfingers 7.12502
lthumb -12.7662 7.31386
rfemur -43.3342 19.2391 -2.471
rtibia 29.2997
rfoot 16.1714 -2.3609
rtoes -45.1302
lfemur -47.0556 -18.166 -3.36359
ltibia 37.3179
lfoot 9.76541 25.7579
ltoes 31.5102
